<svg xmlns="http://www.w3.org/2000/svg" version="1.1" xmlns:xlink="http://www.w3.org/1999/xlink" xmlnsSvgjs="http://svgjs.dev/svgjs" width="2000" height="813" viewBox="0 0 2000 813"><g transform="matrix(1,0,0,1,-1.2121212121212466,-0.8366058556804887)"><svg viewBox="0 0 396 161" data-background-color="#ffffff" preserveAspectRatio="xMidYMid meet" height="813" width="2000" xmlns="http://www.w3.org/2000/svg" xmlns:xlink="http://www.w3.org/1999/xlink"><g id="tight-bounds" transform="matrix(1,0,0,1,0.2400000000000091,0.16567471434754566)"><svg viewBox="0 0 395.52 160.6686505713049" height="160.6686505713049" width="395.52"><g><svg viewBox="0 0 545.2808162217441 221.50468478147081" height="160.6686505713049" width="395.52"><g transform="matrix(1,0,0,1,149.7608162217441,27.27403318401855)"><svg viewBox="0 0 395.52000000000004 166.95661841343372" height="166.95661841343372" width="395.52000000000004"><g id="textblocktransform"><svg viewBox="0 0 395.52000000000004 166.95661841343372" height="166.95661841343372" width="395.52000000000004" id="textblock"><g><svg viewBox="0 0 395.52000000000004 166.95661841343372" height="166.95661841343372" width="395.52000000000004"><g transform="matrix(1,0,0,1,0,0)"><svg width="395.52000000000004" viewBox="3.6 -35.95 86.34 36.45" height="166.95661841343372" data-palette-color="#000000"><path d="M10.45 0L3.6 0 3.6-25 9.55-25 10-20.1Q11-22.7 12.93-24.1 14.85-25.5 17.75-25.5L17.75-25.5Q18.6-25.5 19.3-25.35 20-25.2 20.45-24.95L20.45-24.95 19.65-19.2Q19.15-19.4 18.43-19.5 17.7-19.6 16.55-19.6L16.55-19.6Q15.05-19.6 13.65-18.88 12.25-18.15 11.35-16.68 10.45-15.2 10.45-12.95L10.45-12.95 10.45 0ZM24.6-35.95L31.45-35.95 31.45-7.7Q31.45-5.95 32.05-5.25 32.65-4.55 34.05-4.55L34.05-4.55Q34.9-4.55 35.45-4.67 36-4.8 36.85-5.05L36.85-5.05 36.25-0.55Q35.4-0.05 34.12 0.23 32.85 0.5 31.6 0.5L31.6 0.5Q27.95 0.5 26.27-1.28 24.6-3.05 24.6-6.95L24.6-6.95 24.6-35.95ZM52-25.5L52-25.5Q55.34-25.5 57.67-24.53 60-23.55 61.42-21.88 62.84-20.2 63.45-18.15L63.45-18.15 57.05-15.85Q56.55-18.1 55.34-19.25 54.15-20.4 52.09-20.4L52.09-20.4Q50.2-20.4 48.84-19.53 47.5-18.65 46.8-16.88 46.09-15.1 46.09-12.45L46.09-12.45Q46.09-9.8 46.82-8.05 47.55-6.3 48.92-5.45 50.3-4.6 52.15-4.6L52.15-4.6Q53.65-4.6 54.7-5.13 55.75-5.65 56.42-6.65 57.09-7.65 57.34-9.05L57.34-9.05 63.55-7.05Q63-4.8 61.5-3.1 60-1.4 57.65-0.45 55.3 0.5 52.2 0.5L52.2 0.5Q48.34 0.5 45.4-1.05 42.45-2.6 40.84-5.5 39.25-8.4 39.25-12.5L39.25-12.5Q39.25-16.6 40.84-19.5 42.45-22.4 45.34-23.95 48.25-25.5 52-25.5ZM78.84 0.5L78.84 0.5Q75.04 0.5 71.92-0.85 68.79-2.2 66.84-4.65L66.84-4.65 70.79-8.65Q71.99-6.85 73.99-5.7 75.99-4.55 78.74-4.55L78.74-4.55Q80.69-4.55 81.87-5.13 83.04-5.7 83.04-6.95L83.04-6.95Q83.04-7.75 82.49-8.33 81.94-8.9 80.29-9.25L80.29-9.25 75.89-10.15Q71.54-11.05 69.72-12.88 67.89-14.7 67.89-17.6L67.89-17.6Q67.89-19.65 69.12-21.45 70.34-23.25 72.79-24.38 75.24-25.5 78.89-25.5L78.89-25.5Q82.64-25.5 85.42-24.33 88.19-23.15 89.79-20.85L89.79-20.85 85.69-16.85Q84.59-18.6 82.82-19.53 81.04-20.45 79.09-20.45L79.09-20.45Q77.69-20.45 76.69-20.15 75.69-19.85 75.19-19.33 74.69-18.8 74.69-18L74.69-18Q74.69-17.2 75.39-16.63 76.09-16.05 77.94-15.65L77.94-15.65 83.04-14.6Q86.74-13.85 88.34-12.08 89.94-10.3 89.94-7.8L89.94-7.8Q89.94-5.4 88.67-3.53 87.39-1.65 84.92-0.58 82.44 0.5 78.84 0.5Z" opacity="1" transform="matrix(1,0,0,1,0,0)" fill="#ffffff" class="wordmark-text-0" data-fill-palette-color="primary" id="text-0"></path></svg></g></svg></g></svg></g></svg></g><g><svg viewBox="0 0 110.34636557317434 221.50468478147081" height="221.50468478147081" width="110.34636557317434"><g><svg xmlns="http://www.w3.org/2000/svg" xmlns:xlink="http://www.w3.org/1999/xlink" version="1.1" x="0" y="0" viewBox="26 3.0630000000000006 47.294 94.936" enable-background="new 0 0 100 100" xml:space="preserve" height="221.50468478147081" width="110.34636557317434" class="icon-icon-0" data-fill-palette-color="accent" id="icon-0"><g fill="#3182ce" data-fill-palette-color="accent"><path fill="#ffffff" d="M64.042 23.114v-7.742c0-6.8-6.449-12.309-14.397-12.309-7.944 0-14.388 5.509-14.388 12.309v7.742H64.042zM53.375 7.849c0-0.591 0.657-1.065 1.47-1.065 0.807 0 1.464 0.475 1.464 1.065v10.125c0 0.592-0.657 1.069-1.464 1.069-0.812 0-1.47-0.478-1.47-1.069V7.849zM48.414 7.849c0-0.591 0.657-1.065 1.467-1.065 0.806 0 1.463 0.475 1.463 1.065v10.125c0 0.592-0.657 1.069-1.463 1.069-0.81 0-1.467-0.478-1.467-1.069V7.849zM42.985 7.849c0-0.591 0.652-1.065 1.464-1.065 0.812 0 1.467 0.475 1.467 1.065v10.125c0 0.592-0.654 1.069-1.467 1.069-0.812 0-1.464-0.478-1.464-1.069V7.849zM35.257 55.887V24.665h28.785v31.222c0 6.793-6.449 12.303-14.397 12.303C41.7 68.189 35.257 62.68 35.257 55.887zM73.294 42.654v15.873c0 10.062-8.372 18.449-19.385 20.202V89.04h5.234c1.308 0 2.362 1.055 2.362 2.355v4.248c0 1.301-1.055 2.356-2.362 2.356H40.147c-1.306 0-2.359-1.056-2.359-2.356v-4.248c0-1.301 1.054-2.355 2.359-2.355h5.232V78.729C34.369 76.977 26 68.59 26 58.527V42.654c0 0 1.955-3.241 4.396 0-0.017 4.229 0 15.873 0 15.873 0 8.9 8.64 16.146 19.248 16.146 10.616 0 19.249-7.245 19.249-16.146 0 0 0.093-11.257 0-15.873C71.229 39.014 73.294 42.654 73.294 42.654z" data-fill-palette-color="accent"></path></g></svg></g></svg></g></svg></g><defs></defs></svg><rect width="395.52" height="160.6686505713049" fill="none" stroke="none" visibility="hidden"></rect></g></svg></g></svg>